<?xml version="1.0" encoding="utf-8"?>
<!-- Generator: Adobe Illustrator 25.4.1, SVG Export Plug-In . SVG Version: 6.00 Build 0)  -->
<svg version="1.1" id="Layer_1" xmlns="http://www.w3.org/2000/svg" xmlns:xlink="http://www.w3.org/1999/xlink" x="0px" y="0px"
	 viewBox="0 0 331.29 320.41" style="enable-background:new 0 0 331.29 320.41;" xml:space="preserve">
<style type="text/css">
	.st0{fill:#BDC09D;}
	.st1{fill:#FFFFFF;}
</style>
<g>
	<g id="XMLID_00000026151286295790142010000012631921707794240931_">
		<g>
			<path class="st0" d="M163.27,172.61c7.5-0.01,15.04-0.15,22.47,0.71c22.75,2.65,42.97,24.42,46.51,49.67
				c0.6,4.32,0.71,8.74,0.94,13.12c0.24,4.68-1.79,8.27-5.57,9.59c-5.52,1.93-11.23,3.64-16.96,4.27
				c-8.67,0.95-17.42,1.04-26.14,1.23c-8.64,0.18-17.29,0.04-25.93,0.04c0-0.19,0-0.37,0-0.55c-15.1,0-30.21,0.35-45.29-0.16
				c-6.63-0.22-13.32-1.7-19.78-3.51c-6.1-1.7-7.9-5.23-7.93-12.25c-0.12-31.46,20.3-57.96,48.14-61.46
				C143.48,172.08,153.42,172.62,163.27,172.61z"/>
			<path class="st0" d="M157.44,156.77c-23.72-0.04-43.07-21.31-43.03-47.31c0.04-25.91,19.53-47.16,43.23-47.14
				c23.69,0.01,43.16,21.31,43.17,47.22C200.81,135.65,181.39,156.8,157.44,156.77z"/>
			<path class="st1" d="M157.44,156.77c23.95,0.03,43.37-21.12,43.37-47.23c-0.01-25.91-19.48-47.21-43.17-47.22
				c-23.7-0.02-43.19,21.23-43.23,47.14C114.37,135.46,133.72,156.73,157.44,156.77z M113.3,250.53
				c15.08,0.51,30.19,0.16,45.29,0.16c0,0.18,0,0.36,0,0.55c8.64,0,17.29,0.14,25.93-0.04c8.72-0.19,17.47-0.28,26.14-1.23
				c5.73-0.63,11.44-2.34,16.96-4.27c3.78-1.32,5.81-4.91,5.57-9.59c-0.23-4.38-0.34-8.8-0.94-13.12
				c-3.54-25.25-23.76-47.02-46.51-49.67c-7.43-0.86-14.97-0.72-22.47-0.71c-9.85,0.01-19.79-0.53-29.54,0.7
				c-27.84,3.5-48.26,30-48.14,61.46c0.03,7.02,1.83,10.55,7.93,12.25C99.98,248.83,106.67,250.31,113.3,250.53z M383.74-11.12
				c0,111.93,0,223.87,0,335.8c-146.73,0-293.47,0-440.2,0c0-111.93,0-223.87,0-335.8C90.27-11.12,237.01-11.12,383.74-11.12z"/>
		</g>
		<g>
		</g>
	</g>
</g>
</svg>
